<?xml version="1.0" encoding="UTF-8"?><svg id="a" xmlns="http://www.w3.org/2000/svg" xmlns:xlink="http://www.w3.org/1999/xlink" viewBox="0 0 7.04 18.35"><defs><linearGradient id="b" x1="11.25" y1="-7.23" x2="24.28" y2="-4.14" gradientTransform="translate(-13.89 8.69) rotate(-18.14) scale(1 -1)" gradientUnits="userSpaceOnUse"><stop offset="0" stop-color="#b5188d"/><stop offset="1" stop-color="#4e69ae"/></linearGradient></defs><path d="M6.18,2.02c-.29-.72-.58-1.4-.91-2.02,0,.07,0,.13.02.21.12.43.19.9.17,1.39,0,0,.01.01.02.02.13,2.74-2.28,4.25-3.54,5.52-.75.76-1.43,1.73-1.67,3.07-.26,1.48.17,3.01.46,4.44.04.18.11.64.2.91.46,1.32,1.39,3.18,1.34,2.72-.36-3.46-.33-5.91,0-6.27.5-.92,1.23-1.59,1.88-2.17.91-.81,1.83-1.63,2.41-2.98.71-1.65.21-3.34-.39-4.84h-.01Z" style="fill:url(#b); stroke-width:0px;"/></svg>