<?xml version="1.0" encoding="UTF-8"?><svg id="a" xmlns="http://www.w3.org/2000/svg" xmlns:xlink="http://www.w3.org/1999/xlink" viewBox="0 0 13.8 18.64"><defs><linearGradient id="b" x1=".78" y1="12.67" x2="15.28" y2="7.71" gradientUnits="userSpaceOnUse"><stop offset="0" stop-color="#f71873"/><stop offset="1" stop-color="#c6211b"/></linearGradient><linearGradient id="c" x1=".08" y1="6.71" x2="13.71" y2="7.49" gradientUnits="userSpaceOnUse"><stop offset="0" stop-color="#b5188d"/><stop offset="1" stop-color="#4e69ae"/></linearGradient></defs><path d="M3.68,7.69c1.01-.91,2.18-1.46,3.31-1.95,1.17-.51,2.35-.89,3.54-1.26,1.09-.33,2.18-.63,3.27-.97l-1.14-3.52c-2.19.78-3.26.91-5.45,1.66-1.17.41-2.34.9-3.47,1.55-1.08.61-2.14,1.44-2.9,2.76C.12,7.2-.19,8.94.12,10.49c.23,1.11.7,2.14,1.14,3.08.36.8.75,1.57,1.27,2.16.76.86,1.74,1.25,2.66,1.56,1.26.44,2.52.82,3.78,1.31.03.01.07.03.1.04v-2.81s-.09-.04-.14-.06c-1.31-.56-2.64-1.06-3.98-1.5-1.05-.34-2.12-.61-3.09-1.29-.13-.09-.27-.19-.39-.32,0-.39.03-.79.1-1.17.27-1.68,1.15-2.94,2.12-3.81Z" style="fill:url(#b); stroke-width:0px;"/><path d="M12.66,0c-2.19.78-3.26.92-5.45,1.68-1.17.41-2.34.9-3.47,1.55-1.08.61-2.14,1.44-2.9,2.76C.12,7.22-.19,8.96.12,10.5c.23,1.11.7,2.14,1.14,3.08.1.22.2.42.3.63-.02-.12-.05-.24-.08-.36-.11-.49-.1-1-.01-1.47.01-.3.05-.58.09-.87.27-1.68,1.15-2.94,2.12-3.81,1.01-.91,2.18-1.46,3.31-1.95,1.17-.51,2.35-.89,3.54-1.26,1.09-.33,2.18-.63,3.26-.97l-1.14-3.53Z" style="fill:url(#c); stroke-width:0px;"/></svg>