<?xml version="1.0" encoding="UTF-8"?><svg id="a" xmlns="http://www.w3.org/2000/svg" xmlns:xlink="http://www.w3.org/1999/xlink" viewBox="0 0 24.13 51.19"><defs><linearGradient id="b" x1="1.1" y1="24.86" x2="23.37" y2="24.86" gradientUnits="userSpaceOnUse"><stop offset="0" stop-color="#b5188d"/><stop offset="1" stop-color="#4e69ae"/></linearGradient><linearGradient id="c" x1="37.24" y1="-73.67" x2="35.52" y2="-87.88" gradientTransform="translate(23.32 -45.57) rotate(30.56) scale(1 -1)" gradientUnits="userSpaceOnUse"><stop offset="0" stop-color="#f71873"/><stop offset="1" stop-color="#c6211b"/></linearGradient><linearGradient id="d" x1="36.43" y1="-66.1" x2="26.23" y2="-75.62" xlink:href="#c"/><linearGradient id="e" x1="28.89" y1="-50.58" x2="13.32" y2="-65.55" xlink:href="#c"/></defs><path d="M1.4,5.13c.88,1.4,2.42,1.96,3.97,2.42,2.07.61,4.16,1.15,6.25,1.7,2.08.56,4.16,1.12,6.21,1.78.1.03.2.06.3.1-.86.17-1.74.3-2.59.43-3.29.47-6.55,1.09-9.77,1.92-.78.2-1.55.41-2.33.63-.64.18-1.39.31-1.9.76-.22.19-.29.5-.34.77-.14,1.01-.11,2.07-.06,3.09.03.68.03,1.44.28,2.1.11.3.45.52.71.69,2.52,1.64,5.39,2.75,8.2,3.81,1.76.66,3.54,1.3,5.28,2.01.46.19.92.38,1.37.58-1.27.51-2.64.75-3.98,1-1.5.28-2.99.59-4.36,1.27-.55.27-1.04.73-1.22,1.31-.21.65-.16,1.44-.15,2.11,0,.67.01,1.35.06,2.02.03.43.04.93.19,1.34.21.58.72.81,1.28,1.02.79.31,1.59.58,2.41.83,1.02.3,2.03.49,3.07.68-.79.48-1.62.93-2.37,1.45-1.29.87-2.45,2.1-2.79,3.62-.24,1.03-.15,2.18-.1,3.23.03.52.05,1.04.14,1.56,0,.03.12.59.19.27.46-1.99,2.23-3.22,3.92-4.22.94-.56,1.9-1.09,2.75-1.78.85-.68,1.24-1.48,1.36-2.49.04-.06.05-.24.05-.53.08-1.32.07-2.66-.11-3.97-.07-.52-.14-1.08-.5-1.5-.68-.79-2.06-.73-3.02-.91-.14-.03-.29-.06-.44-.09.78-.15,1.56-.29,2.32-.49,1.31-.34,2.58-.87,3.62-1.74.45-.38.9-.88,1.08-1.44.21-.67.15-1.45.16-2.13.01-1.08.05-2.31-.25-3.37-.16-.57-.65-.93-1.16-1.22-.67-.38-1.4-.69-2.1-1-1.38-.62-2.8-1.16-4.22-1.7-2.11-.79-4.24-1.56-6.3-2.46,1.22-.3,2.46-.58,3.69-.83,1.64-.34,3.29-.62,4.96-.86,1.39-.2,2.79-.39,4.15-.75,1.29-.35,2.63-.9,3.6-1.82.24-.23.34-.54.38-.85.14-1.02.1-2.08.06-3.1-.05-1.01.01-2.12-.88-2.78-.56-.4-1.31-.6-1.94-.84-.79-.3-1.59-.56-2.4-.83-1.55-.51-3.12-.95-4.7-1.39-2.27-.62-4.55-1.2-6.82-1.84C4.83,2.18,2.49,1.73,1.45.07c-.14-.24-.17.19-.19.27-.07.52-.08,1.05-.08,1.57,0,.67.01,1.35.06,2.02.02.3,0,.92.17,1.21h-.02Z" style="fill:url(#b); stroke-width:0px;"/><path d="M17.3,36.59c-.01-.06-.02-.13-.02-.18-.54,2.03-3,3.05-3,3.05-.79.48-1.62.93-2.37,1.45-1.29.87-2.45,2.1-2.79,3.62-.24,1.03-.15,2.18-.1,3.23.03.52.05,1.04.14,1.56,0,.03.12.59.19.27.46-1.99,2.23-3.22,3.92-4.22.94-.56,1.9-1.09,2.75-1.78.85-.68,1.24-1.48,1.36-2.49.04-.06.05-.24.05-.53.08-1.32.07-2.66-.11-3.97h-.01Z" style="fill:url(#c); stroke-width:0px;"/><path d="M15.6,27.31c.46.19.92.38,1.37.58-1.27.51-2.64.75-3.98,1-1.5.28-2.99.59-4.36,1.27-.55.27-1.04.73-1.22,1.31-.21.65-.16,1.44-.15,2.11,0,.67.01,1.35.06,2.02.02.33.03.69.11,1.04.97-1.64,5.37-2.45,5.37-2.45l.72-.06c-.06,0-.13-.03-.19-.03.78-.15,1.56-.29,2.32-.49,1.31-.34,2.58-.87,3.62-1.74.45-.38.9-.88,1.08-1.44,0,0,.3-1.18-4.75-3.1v-.02Z" style="fill:url(#d); stroke-width:0px;"/><path d="M18.04,11.13c-.84.17-1.68.29-2.53.41-3.29.47-6.55,1.09-9.77,1.92-.78.2-1.55.41-2.33.63-.64.18-1.39.31-1.9.76-.22.19-.29.5-.34.77-.14,1.01-.11,2.07-.06,3.09.03.68.03,1.44.28,2.1,0,0,0,.02.01.03l.05-.42s.66-1.34,5-1.86c1.22-.3,2.46-.58,3.69-.83,1.64-.34,3.29-.62,4.96-.86,1.39-.2,2.79-.39,4.15-.75,1.29-.35,2.63-.9,3.6-1.82.13-.12.22-.28.28-.43.03-.17-.12-.97-5.1-2.72h0Z" style="fill:url(#e); stroke-width:0px;"/></svg>