<?xml version="1.0" encoding="UTF-8"?><svg id="a" xmlns="http://www.w3.org/2000/svg" xmlns:xlink="http://www.w3.org/1999/xlink" viewBox="0 0 18.27 43.19"><defs><linearGradient id="b" x1="75.53" y1="99.19" x2="70.06" y2="116.35" gradientTransform="translate(84.87 127.79) rotate(-69.9) scale(1 -1)" gradientUnits="userSpaceOnUse"><stop offset="0" stop-color="#f71873"/><stop offset="1" stop-color="#f8a629"/></linearGradient><linearGradient id="c" x1="65.07" y1="100.38" x2="54.21" y2="104.31" gradientTransform="translate(84.87 127.79) rotate(-69.9) scale(1 -1)" gradientUnits="userSpaceOnUse"><stop offset="0" stop-color="#b5188d"/><stop offset="1" stop-color="#4e69ae"/></linearGradient><linearGradient id="d" x1="71.11" y1="99.64" x2="65.46" y2="109.39" xlink:href="#c"/><linearGradient id="e" x1="84.7" y1="102.77" x2="75.73" y2="117.73" xlink:href="#c"/></defs><path d="M.68,6.12c.66,1.16,1.89,1.67,3.12,2.09,1.65.57,3.32,1.08,4.99,1.61,1.67.53,3.32,1.06,4.96,1.67l.24.09c-.7.11-1.41.17-2.12.24-2.67.26-5.33.63-7.95,1.18-.63.13-1.27.28-1.9.42-.53.12-1.13.19-1.56.54-.19.15-.26.39-.3.61C0,15.37,0,16.23,0,17.06c0,.55-.03,1.17.15,1.71.08.25.34.44.55.59,1.97,1.41,4.26,2.42,6.49,3.38,1.4.6,2.81,1.19,4.19,1.83.36.17.73.34,1.1.52-1.04.36-2.16.51-3.25.65-1.22.17-2.44.36-3.57.85-.45.2-.87.54-1.03,1.01-.19.52-.18,1.15-.2,1.7-.02.54-.03,1.09-.01,1.63,0,.34,0,.75.11,1.08.16.47.55.68.99.87.63.28,1.27.52,1.92.75.81.28,1.63.47,2.46.66-.65.36-1.33.69-1.97,1.07-1.07.66-2.05,1.6-2.39,2.81-.23.83-.21,1.76-.2,2.6,0,.41,0,.85.06,1.26,0,.03.08.48.15.22.44-1.59,1.91-2.5,3.32-3.26.77-.42,1.57-.81,2.29-1.33.7-.52,1.05-1.15,1.19-1.95.03-.05.05-.2.06-.43.11-1.05.16-2.15.06-3.21-.04-.43-.08-.88-.36-1.22-.52-.66-1.64-.67-2.41-.85-.11-.03-.23-.06-.34-.09.63-.09,1.27-.18,1.89-.3,1.07-.23,2.12-.61,2.98-1.27.39-.29.76-.67.92-1.13.2-.53.17-1.16.2-1.71.05-.87.12-1.86-.08-2.72-.11-.46-.49-.78-.89-1.02-.54-.33-1.1-.61-1.66-.89-1.1-.55-2.22-1.04-3.35-1.53-1.68-.72-3.37-1.42-5-2.22.99-.19,2.01-.37,3.02-.53,1.34-.21,2.69-.37,4.04-.5,1.13-.11,2.26-.2,3.37-.45,1.06-.23,2.15-.63,2.97-1.34.2-.18.29-.43.34-.67.15-.81.16-1.66.16-2.49,0-.81.09-1.7-.61-2.27-.43-.35-1.03-.54-1.54-.75-.63-.27-1.27-.51-1.91-.76-1.24-.47-2.48-.88-3.74-1.3-1.81-.59-3.63-1.14-5.44-1.74-1.42-.47-3.29-.91-4.07-2.29-.11-.2-.15.14-.16.21-.08.42-.1.84-.12,1.27-.03.55-.03,1.09-.01,1.63,0,.25-.04.74.09.98h-.06Z" style="fill:url(#b); stroke-width:0px;"/><path d="M12.43,32.08s-.01-.1-.02-.15c-.51,1.62-2.54,2.35-2.54,2.35-.65.36-1.33.69-1.97,1.07-1.07.66-2.05,1.6-2.39,2.81-.23.83-.21,1.76-.2,2.6,0,.41,0,.85.06,1.26,0,.03.08.48.15.22.44-1.59,1.91-2.5,3.32-3.26.77-.42,1.57-.81,2.29-1.33.7-.52,1.05-1.15,1.19-1.95.03-.05.05-.2.06-.43.11-1.05.16-2.15.06-3.21v.02Z" style="fill:url(#c); stroke-width:0px;"/><path d="M11.39,24.54c.36.17.73.34,1.1.52-1.04.36-2.16.51-3.25.65-1.22.17-2.44.36-3.57.85-.45.2-.87.54-1.03,1.01-.19.52-.18,1.15-.2,1.7-.02.54-.03,1.09-.01,1.63.01.26,0,.56.06.85.85-1.29,4.43-1.76,4.43-1.76l.58-.02s-.1-.02-.15-.04c.63-.09,1.27-.18,1.89-.3,1.07-.23,2.12-.61,2.98-1.27.39-.29.76-.67.92-1.13,0,0,.28-.94-3.74-2.68Z" style="fill:url(#d); stroke-width:0px;"/><path d="M13.93,11.59c-.68.1-1.37.16-2.05.23-2.67.26-5.33.63-7.95,1.18-.63.13-1.27.28-1.9.42-.53.12-1.13.19-1.56.54-.19.15-.26.39-.3.61C0,15.37,0,16.23,0,17.06c0,.55-.03,1.17.15,1.71t0,.01l.06-.33s.58-1.05,4.1-1.31c.99-.19,2.01-.37,3.02-.53,1.34-.21,2.69-.37,4.04-.5,1.13-.11,2.26-.2,3.37-.45,1.06-.23,2.15-.63,2.97-1.34.11-.09.19-.21.24-.34.04-.13-.06-.79-4.03-2.38h-.01Z" style="fill:url(#e); stroke-width:0px;"/></svg>