<?xml version="1.0" encoding="UTF-8"?><svg id="a" xmlns="http://www.w3.org/2000/svg" xmlns:xlink="http://www.w3.org/1999/xlink" viewBox="0 0 23.73 51.19"><defs><linearGradient id="b" x1="16.44" y1="33.13" x2="38.71" y2="25.52" gradientTransform="translate(-5.38 61.98) rotate(-18.14) scale(1 -1)" gradientUnits="userSpaceOnUse"><stop offset="0" stop-color="#f71873"/><stop offset="1" stop-color="#c6211b"/></linearGradient><linearGradient id="c" x1="16.81" y1="39" x2="45.67" y2="40.65" gradientTransform="translate(-5.38 61.98) rotate(-18.14) scale(1 -1)" gradientUnits="userSpaceOnUse"><stop offset="0" stop-color="#b5188d"/><stop offset="1" stop-color="#4e69ae"/></linearGradient><linearGradient id="d" x1="18.41" y1="12.01" x2="31.44" y2="15.11" xlink:href="#c"/></defs><path d="M23.49,5.37c-.31-1.14-.78-2.21-1.26-3.2-.34-.71-.71-1.37-1.25-1.75-.52-.36-1.11-.39-1.67-.4-.72-.02-1.44-.02-2.15.01-1.38.06-2.76.24-4.12.55-3.21.74-6.33,2.71-9.62,2.19-.01.07-.01.14-.02.22.49,1.01,1.09,1.86,1.92,2.27,1.17.58,2.53.46,3.74.25,1.34-.23,2.67-.72,3.99-1.12,2.68-.82,5.46-1.14,8.18-.95.36.03.7.1,1.03.28,0,.1,0,.2,0,.3-.04,1.57-.71,2.92-1.48,3.93-1.74,2.29-4.21,3.43-6.41,4.27-2.36.89-4.77,1.42-7.13,2.23-1.17.41-2.34.9-3.47,1.55-1.08.61-2.14,1.44-2.9,2.76-.71,1.23-1.03,2.97-.71,4.51.23,1.11.7,2.14,1.14,3.08.36.8.75,1.57,1.27,2.16.76.86,1.74,1.25,2.66,1.56,1.26.44,2.52.82,3.78,1.31,1.31.51,2.63,1.09,3.92,1.74.57.28,1.14.6,1.67,1.05.08.07.16.14.22.21.13,2.74-2.28,4.25-3.54,5.52-.75.76-1.43,1.73-1.67,3.07-.29,1.62.27,3.3.54,4.83.14.76.53,1.52.83,2.16.15.34.31.67.48.97-.01-.03.2.35.15.1-.31-1.75-.9-3.54-.38-5.34.41-1.42,1.41-2.33,2.27-3.1.91-.81,1.83-1.63,2.41-2.98.71-1.65.21-3.34-.39-4.84-.75-1.89-1.56-3.51-2.93-4.43-1.15-.77-2.42-1.27-3.62-1.79-1.31-.56-2.64-1.06-3.98-1.5-1.05-.34-2.12-.61-3.09-1.29-.13-.09-.27-.19-.39-.32,0-.39.03-.79.1-1.17.27-1.68,1.15-2.94,2.12-3.81,1.01-.91,2.18-1.46,3.31-1.95,1.17-.51,2.35-.89,3.54-1.26,2.38-.72,4.77-1.3,7.08-2.41,2.07-1,4.59-2.51,5.71-5.46.47-1.23.52-2.73.17-4.03v-.02Z" style="fill:url(#b); stroke-width:0px;"/><path d="M23.49,5.37c-.31-1.14-.78-2.21-1.26-3.2-.05-.1-.1-.2-.15-.29.11.58.13,1.2.09,1.81.03,0,.05.03.08.04,0,.1,0,.2,0,.3-.04,1.57-.71,2.92-1.48,3.93-1.74,2.29-4.21,3.43-6.41,4.27-2.36.89-4.77,1.42-7.13,2.23-1.17.41-2.34.9-3.47,1.55-1.08.61-2.14,1.44-2.9,2.76-.71,1.23-1.03,2.97-.71,4.51.23,1.11.7,2.14,1.14,3.08.1.22.2.42.3.63-.02-.12-.05-.24-.08-.36-.11-.49-.1-1-.01-1.47.01-.3.05-.58.09-.87.27-1.68,1.15-2.94,2.12-3.81,1.01-.91,2.18-1.46,3.31-1.95,1.17-.51,2.35-.89,3.54-1.26,2.38-.72,4.77-1.3,7.08-2.41,2.07-1,4.59-2.51,5.71-5.46.47-1.23.52-2.73.17-4.03l-.02-.02Z" style="fill:url(#c); stroke-width:0px;"/><path d="M15.49,34.78c-.29-.72-.58-1.4-.91-2.02,0,.07,0,.13.02.21.12.43.19.9.17,1.39,0,0,.01.01.02.02.13,2.74-2.28,4.25-3.54,5.52-.75.76-1.43,1.73-1.67,3.07-.26,1.48.17,3.01.46,4.44.04.18.11.64.2.91.46,1.32,1.39,3.18,1.34,2.72-.36-3.46-.33-5.91,0-6.27.5-.92,1.23-1.59,1.88-2.17.91-.81,1.83-1.63,2.41-2.98.71-1.65.21-3.34-.39-4.84h-.01Z" style="fill:url(#d); stroke-width:0px;"/></svg>