<?xml version="1.0" encoding="UTF-8"?><svg id="a" xmlns="http://www.w3.org/2000/svg" xmlns:xlink="http://www.w3.org/1999/xlink" viewBox="0 0 11.64 51.14"><defs><linearGradient id="b" x1="-122.94" y1="90.74" x2="-94.82" y2="75.7" gradientTransform="translate(65.3 15.22) rotate(-42.69) scale(.47 -.4)" gradientUnits="userSpaceOnUse"><stop offset="0" stop-color="#f71873"/><stop offset="1" stop-color="#c6211b"/></linearGradient><linearGradient id="c" x1="-72.01" y1="130.3" x2="-79.29" y2="110.06" gradientTransform="translate(65.3 15.22) rotate(-42.69) scale(.47 -.4)" gradientUnits="userSpaceOnUse"><stop offset="0" stop-color="#b5188d"/><stop offset="1" stop-color="#4e69ae"/></linearGradient><linearGradient id="d" x1="-127.82" y1="73.35" x2="-140.12" y2="37.36" xlink:href="#c"/><linearGradient id="e" x1="-101.46" y1="110.56" x2="-97.88" y2="79.78" xlink:href="#c"/></defs><path d="M9.06,19.32c-1.75-.37-3.58-.69-5.18-1.39-.71-.31-1.3-.78-1.63-1.48-.31-.66-.33-1.44-.2-2.22.06-.35.15-.7.27-1.04.11-.15.23-.32.38-.5.3-.4.62-.78.93-1.17,1.58-1.97,3.05-4.14,3.93-6.44.56-1.47.75-3.18-.13-4.33-.1-.13-.22-.25-.34-.36-.07-.06-.93,1.37-.97,1.45-.2.35-.39.71-.56,1.07-.01.03-.22.42-.16.47,1.06.93,1.13,2.57.64,4.04,0,.03-.02.06-.03.09-.09.12-.18.24-.27.36-.58.76-1.14,1.77-1.73,2.53-.85,1.11-1.64,2.02-2.3,3.24-.53.99-1.02,2.01-1.28,3.06-.4,1.61-.05,3.15,1.25,3.95.69.43,1.54.64,2.34.86.91.25,1.85.48,2.79.67,1.28.26,3.13.56,3.13,2.18,0,0,0,.01,0,.02-.64.67-1.37,1.28-2.07,1.88-1.49,1.31-3,2.6-4.29,4.11-.84.99-1.53,2.06-2.16,3.18-.61,1.08-1.24,2.25-1.39,3.43-.23,1.8.74,3.31,1.79,4.49,1.1,1.23,2.41,2.31,3.09,3.87.63,1.45.67,3.27.07,4.95-.03.07-.05.14-.08.2.01-.03-.15.35.01.19.18-.19.33-.44.46-.66.41-.66.83-1.36,1.11-2.07.67-1.71.8-3.48.32-5.07-.5-1.64-1.76-2.79-2.89-3.98-1.11-1.17-2.23-2.57-2.22-4.37,0-.34.05-.68.14-1.02.45-.57.96-1.1,1.47-1.61,1.41-1.4,2.96-2.65,4.42-3.99.71-.65,1.32-1.34,1.86-2.12.53-.76.97-1.58,1.39-2.39.26-.5.5-1.03.61-1.57.33-1.67-1.24-2.26-2.54-2.54h0Z" style="fill:url(#b); stroke-width:0px;"/><path d="M6.08,7.29c-.02.23-.03.47-.06.7-.01.08-.03.16-.04.24.62-1.01,1.16-2.06,1.57-3.14.56-1.47.75-3.18-.13-4.33-.1-.13-.22-.25-.34-.36-.07-.06-.93,1.37-.97,1.45-.2.35-.39.71-.56,1.07-.01.03-.22.42-.16.47,1.03.9,1.12,2.46.69,3.88h0Z" style="fill:url(#c); stroke-width:0px;"/><path d="M3.92,38.94c-1.11-1.17-2.23-2.57-2.22-4.37,0-.34.05-.68.14-1.02.01-.02.03-.04.05-.06.04-.37.11-.72.22-1.06-.24.38-.47.76-.68,1.15-.61,1.08-1.24,2.25-1.39,3.43-.23,1.8.74,3.31,1.79,4.49,1.1,1.23,2.41,2.31,3.09,3.87.63,1.45.67,3.27.07,4.95-.03.07-.05.14-.08.2.01-.03-.15.35.01.19.18-.19.33-.44.46-.66.41-.66.83-1.36,1.11-2.07.67-1.71.8-3.48.32-5.07-.5-1.64-1.76-2.79-2.89-3.98h0Z" style="fill:url(#d); stroke-width:0px;"/><path d="M9.06,19.32c-1.75-.37-3.58-.69-5.18-1.39-.71-.31-1.3-.78-1.63-1.48-.31-.66-.33-1.44-.2-2.22.05-.28.12-.57.21-.85-.34.25-.62.56-.88.9-.4.79-.74,1.6-.95,2.43-.4,1.61-.05,3.15,1.25,3.95.69.43,1.54.64,2.34.86.91.25,1.85.48,2.79.67,1.21.24,2.93.53,3.11,1.93.23.01.45.1.53.3.19-.34.36-.68.54-1.01.26-.5.5-1.03.61-1.57.33-1.67-1.24-2.26-2.54-2.54h0Z" style="fill:url(#e); stroke-width:0px;"/></svg>