<?xml version="1.0" encoding="UTF-8"?><svg id="a" xmlns="http://www.w3.org/2000/svg" xmlns:xlink="http://www.w3.org/1999/xlink" viewBox="0 0 14.26 51.89"><defs><linearGradient id="b" x1="236.87" y1="-154.31" x2="220.75" y2="-121.25" gradientTransform="translate(203.29 -154.03) rotate(106.75) scale(1 -1)" gradientUnits="userSpaceOnUse"><stop offset="0" stop-color="#b5188d"/><stop offset="1" stop-color="#4e69ae"/></linearGradient><linearGradient id="c" x1="221" y1="-153.77" x2="209.79" y2="-130.76" gradientTransform="translate(203.29 -154.03) rotate(106.75) scale(1 -1)" gradientUnits="userSpaceOnUse"><stop offset="0" stop-color="#f71873"/><stop offset="1" stop-color="#c6211b"/></linearGradient><linearGradient id="d" x1="254.3" y1="-123.5" x2="238.82" y2="-142.79" gradientTransform="translate(203.29 -154.03) rotate(106.75) scale(1 -1)" gradientUnits="userSpaceOnUse"><stop offset="0" stop-color="#b5188d"/><stop offset="1" stop-color="#4e69ae"/></linearGradient><linearGradient id="e" x1="247.29" y1="-140.89" x2="232.75" y2="-123.95" gradientTransform="translate(203.29 -154.03) rotate(106.75) scale(1 -1)" gradientUnits="userSpaceOnUse"><stop offset="0" stop-color="#f71873"/><stop offset="1" stop-color="#c6211b"/></linearGradient></defs><path d="M.56,22.62c.58,3.29,4.34,4,7.09,4.59,3.11.67,5.78,1.55,6.68,4.48-.12-1.03-.12-1.88-.28-3.19-.41-3.26-2.99-4.72-5.92-5.46-2.79-.7-7.36-1.09-7.97-4.63.18,1.02.18,2.92.41,4.22Z" style="fill:url(#b); stroke-width:0px;"/><path d="M12.53.01c-3.71,3.26-7.08,6.86-10.03,10.82C1.35,12.37-.06,14.29,0,16.33c.06,1.82,0,3.82.51,5.58-.39-1.37.1-3-.3-4.39-.1-.28-.16-.56-.19-.85.09,1.36.19,2.73.28,4.09,0-.15-.02-.29-.02-.43v.3c.19-3.18,2.83-5.95,4.76-8.3,2.36-2.87,4.98-5.5,7.78-7.94.21-.18-.11-1.93-.12-2.19-.02-.23-.34-2.05-.17-2.19h0Z" style="fill:url(#c); stroke-width:0px;"/><path d="M3.2,43.21c-.28,1.84.32,3.22,1.92,4.24,1.8,1.14,3.27,2.15,3.34,4.48-.05-1.43.78-2.89.73-4.33-.06-1.84-1.04-3.13-2.59-4.05-1.6-.95-2.82-1.93-2.77-3.94-.01.1-.03.2-.04.29.02-.14.04-.28.07-.42.12-.8-.14.66-.17.77-.17.99-.34,1.98-.49,2.97h0Z" style="fill:url(#d); stroke-width:0px;"/><path d="M14.13,29.86c.03,1.82-1.33,3.01-1.33,3.01-2.08,2.09-6.08,3.01-8.05,4.8-1.32,1.2-1.58,2.81-1.58,4.49-.06.04-.06.55-.02,1.52,0,.24,0,.49,0,.73.88-2.06,2.61-3.1,2.61-3.1,1.78-1.27,4.14-2.06,5.95-3.21,1.47-.94,2.37-2.28,2.46-3.99,0,.02,0,.04,0,.05,0-.05,0-.11,0-.16,0-.05.01-.09,0-.14.01-1.28.23-2.87-.06-4.22,0,.07,0,.14,0,.21h0Z" style="fill:url(#e); stroke-width:0px;"/></svg>