<?xml version="1.0" encoding="UTF-8"?><svg id="uuid-9b948da7-fab3-4a2a-b78a-a6c3fb3705f0" xmlns="http://www.w3.org/2000/svg" viewBox="0 0 83.61 96.1"><path d="M12.29,33.01l-8.04,2.16c-.77.21-1.57-.25-1.78-1.02L.05,25.12c-.21-.77.25-1.57,1.02-1.78l9.02-2.42c.77-.21,1.57.25,1.78,1.02l2.16,8.04,3.48,2.01-1.75-5.11c-.31-.91.17-1.9,1.08-2.21.91-.31,1.9.17,2.21,1.08l3.04,8.88,4.46,2.57-4.61-13.47c-.31-.91.17-1.9,1.08-2.21.91-.31,1.9.17,2.21,1.08l5.9,17.24,2.63,1.52-2.88-8.86c-.02-.05-.03-.11-.05-.16-.07-.29-.06-.58.01-.85.07-.27.21-.53.42-.75.11-.12.25-.23.39-.31.15-.09.3-.15.47-.19.29-.07.58-.06.85.01.27.07.53.21.75.42.04.04.08.08.12.12l6.24,6.92v-3.03l-11.98-13.73c-.63-.72-.56-1.82.17-2.45.72-.63,1.82-.56,2.45.17l9.36,10.72v-5.15l-6.17-7.07c-.63-.72-.56-1.82.17-2.45s1.82-.56,2.45.17l3.55,4.07v-4.02l-5.89-5.89c-.57-.57-.57-1.48,0-2.05L40.78.42c.57-.57,1.48-.57,2.05,0l6.6,6.6c.57.57.57,1.48,0,2.05l-5.89,5.89v4.02l3.55-4.07c.63-.72,1.73-.8,2.45-.17.72.63.8,1.73.17,2.45l-6.17,7.07v5.15l9.36-10.72c.63-.72,1.73-.8,2.45-.17.72.63.8,1.73.17,2.45l-11.98,13.73v3.03l6.24-6.92s.08-.08.12-.12c.22-.2.47-.34.75-.42.27-.07.56-.08.85-.01.16.04.32.1.47.19.15.09.28.19.39.31.2.22.34.47.42.75.07.27.08.56.01.85-.01.05-.03.11-.05.16l-2.88,8.86,2.63-1.52,5.9-17.24c.31-.91,1.3-1.39,2.21-1.08.91.31,1.39,1.3,1.08,2.21l-4.61,13.47,4.46-2.57,3.04-8.88c.31-.91,1.3-1.39,2.21-1.08.91.31,1.39,1.3,1.08,2.21l-1.75,5.11,3.48-2.01,2.16-8.04c.21-.77,1-1.23,1.78-1.02l9.02,2.42c.77.21,1.23,1,1.02,1.78l-2.42,9.02c-.21.77-1,1.23-1.78,1.02l-8.04-2.16-3.48,2.01,5.3,1.04c.94.19,1.56,1.1,1.37,2.04-.19.94-1.1,1.56-2.04,1.37l-9.21-1.81-4.46,2.57,13.97,2.74c.94.19,1.56,1.1,1.37,2.04-.19.94-1.1,1.56-2.04,1.37l-17.88-3.51-2.63,1.52,9.11,1.94c.06.01.11.02.16.04.29.08.53.24.73.44.2.2.35.45.44.73.05.16.07.33.07.5,0,.17-.03.34-.07.5-.08.29-.24.53-.44.73-.2.2-.45.35-.73.44-.05.02-.11.03-.16.04l-9.11,1.94,2.63,1.52,17.88-3.51c.94-.19,1.86.43,2.04,1.37.19.94-.43,1.86-1.37,2.04l-13.97,2.74,4.46,2.57,9.21-1.81c.94-.19,1.86.43,2.04,1.37.19.94-.43,1.86-1.37,2.04l-5.3,1.04,3.48,2.01,8.04-2.16c.77-.21,1.57.25,1.78,1.02l2.42,9.02c.21.77-.25,1.57-1.02,1.78l-9.02,2.42c-.77.21-1.57-.25-1.78-1.02l-2.16-8.04-3.48-2.01,1.75,5.11c.31.91-.17,1.9-1.08,2.21-.91.31-1.9-.17-2.21-1.08l-3.04-8.88-4.46-2.57,4.61,13.47c.31.91-.17,1.9-1.08,2.21-.91.31-1.9-.17-2.21-1.08l-5.9-17.24-2.63-1.52,2.88,8.86c.02.05.03.11.05.16.07.29.06.58-.01.85-.07.27-.21.53-.42.75-.11.12-.25.23-.39.31-.15.09-.3.15-.47.19-.29.07-.58.06-.85-.01-.27-.07-.53-.21-.75-.42-.04-.04-.08-.08-.12-.12l-6.24-6.92v3.03l11.98,13.73c.63.72.56,1.82-.17,2.45-.72.63-1.82.56-2.45-.17l-9.36-10.72v5.15l6.17,7.07c.63.72.56,1.82-.17,2.45-.72.63-1.82.56-2.45-.17l-3.55-4.07v4.02l5.89,5.89c.57.57.57,1.48,0,2.05l-6.6,6.6c-.57.57-1.48.57-2.05,0l-6.6-6.6c-.57-.57-.57-1.48,0-2.05l5.89-5.89v-4.02l-3.55,4.07c-.63.72-1.73.8-2.45.17-.72-.63-.8-1.73-.17-2.45l6.17-7.07v-5.15l-9.36,10.72c-.63.72-1.73.8-2.45.17-.72-.63-.8-1.73-.17-2.45l11.98-13.73v-3.03l-6.24,6.92s-.08.08-.12.12c-.22.2-.47.34-.75.42-.27.07-.56.08-.85.01-.16-.04-.32-.1-.47-.19-.15-.09-.28-.19-.39-.31-.2-.22-.34-.47-.42-.75-.07-.27-.08-.56-.01-.85.01-.05.03-.11.05-.16l2.88-8.86-2.63,1.52-5.9,17.24c-.31.91-1.3,1.39-2.21,1.08-.91-.31-1.39-1.3-1.08-2.21l4.61-13.47-4.46,2.57-3.04,8.88c-.31.91-1.3,1.39-2.21,1.08-.91-.31-1.39-1.3-1.08-2.21l1.75-5.11-3.48,2.01-2.16,8.04c-.21.77-1,1.23-1.78,1.02l-9.02-2.42c-.77-.21-1.23-1-1.02-1.78l2.42-9.02c.21-.77,1-1.23,1.78-1.02l8.04,2.16,3.48-2.01-5.3-1.04c-.94-.19-1.56-1.1-1.37-2.04.19-.94,1.1-1.56,2.04-1.37l9.21,1.81,4.46-2.57-13.97-2.74c-.94-.19-1.56-1.1-1.37-2.04.19-.94,1.1-1.56,2.04-1.37l17.88,3.51,2.63-1.52-9.11-1.94c-.06-.01-.11-.02-.16-.04-.29-.08-.53-.24-.73-.44-.2-.2-.35-.45-.44-.73-.05-.16-.07-.33-.07-.5,0-.17.03-.34.07-.5.08-.29.24-.53.44-.73.2-.2.45-.35.73-.44.05-.02.11-.03.16-.04l9.11-1.94-2.63-1.52-17.88,3.51c-.94.19-1.86-.43-2.04-1.37-.19-.94.43-1.86,1.37-2.04l13.97-2.74-4.46-2.57-9.21,1.81c-.94.19-1.86-.43-2.04-1.37-.19-.94.43-1.86,1.37-2.04l5.3-1.04-3.48-2.01ZM31.58,48.05l4.93,1.05,1.82-1.05-1.82-1.05-4.93,1.05ZM46.92,56.9l-1.56-4.79-1.82-1.05v2.1l3.37,3.74ZM36.69,39.19l1.56,4.79,1.82,1.05v-2.1l-3.37-3.74ZM46.92,39.19l-3.37,3.74v2.1l1.82-1.05,1.56-4.79ZM52.03,48.05l-4.93-1.05-1.82,1.05,1.82,1.05,4.93-1.05ZM36.69,56.9l3.37-3.74v-2.1l-1.82,1.05-1.56,4.79Z" style="fill:#77d0d5; fill-rule:evenodd; stroke-width:0px;"/></svg>