<?xml version="1.0" encoding="UTF-8"?><svg id="uuid-265ddfc6-f2e3-45fd-9c99-ff2f44f96453" xmlns="http://www.w3.org/2000/svg" viewBox="0 0 80.12 92.02"><path d="M5.15,64.74l-4.28-1.74c-.71-.29-1.05-1.1-.76-1.81.29-.71,1.1-1.05,1.81-.76l5.91,2.41c.09.04.17.08.24.13l2.54-1.55-8.03-3.27c-.71-.29-1.05-1.1-.76-1.81.29-.71,1.1-1.05,1.81-.76l9.85,4.01s.06.02.08.04l3.38-2.06-12.47-5.07c-.71-.29-1.05-1.1-.76-1.81.29-.71,1.1-1.05,1.81-.76l14.37,5.85,3.18-1.94-15.92-6.48c-.71-.29-1.05-1.1-.76-1.81.07-.17.17-.32.29-.45.1-.41.4-.78.82-.95l15.11-6.15-3.18-1.94-13.56,5.52c-.71.29-1.52-.05-1.81-.76-.29-.71.05-1.52.76-1.81l11.66-4.74-3.38-2.06-9.12,3.71c-.71.29-1.52-.05-1.81-.76-.29-.71.05-1.52.76-1.81l7.22-2.94-2.51-1.54-5.37,2.19c-.71.29-1.52-.05-1.81-.76-.29-.71.05-1.52.76-1.81l3.47-1.41-4.07-2.49c-.53-.31-.71-.98-.41-1.51.31-.53.98-.71,1.51-.41l4.66,2.54-.63-4.58c-.1-.76.43-1.46,1.19-1.57.76-.1,1.46.43,1.57,1.19l.87,6.32c.01.09.02.19.01.28l2.62,1.43-1.19-8.59c-.1-.76.43-1.46,1.19-1.57.76-.1,1.46.43,1.57,1.19l1.45,10.53s0,.06,0,.09l3.48,1.89-1.84-13.34c-.1-.76.43-1.46,1.19-1.57.76-.1,1.46.43,1.57,1.19l2.12,15.37,3.27,1.78-2.35-17.03c-.1-.76.43-1.46,1.19-1.57.18-.03.36-.01.53.03.41-.12.87-.04,1.23.24l12.88,10.01.09-3.72-11.56-8.98c-.61-.47-.72-1.35-.24-1.95.47-.61,1.35-.72,1.95-.24l9.94,7.72.1-3.95-7.78-6.04c-.61-.47-.72-1.35-.24-1.95.47-.61,1.35-.72,1.95-.24l6.16,4.78.07-2.95-4.58-3.56c-.61-.47-.72-1.35-.24-1.95.47-.61,1.35-.72,1.95-.24l2.96,2.3.12-4.77c0-.61.5-1.11,1.11-1.11s1.11.5,1.11,1.11l.13,5.31,3.65-2.84c.61-.47,1.48-.36,1.95.24.47.61.36,1.48-.24,1.95l-5.04,3.92c-.07.06-.15.11-.23.15l.07,2.98,6.85-5.32c.61-.47,1.48-.36,1.95.24.47.61.36,1.48-.24,1.95l-8.4,6.52s-.05.04-.07.05l.1,3.96,10.63-8.26c.61-.47,1.48-.36,1.95.24.47.61.36,1.48-.24,1.95l-12.25,9.52.09,3.72,13.57-10.55c.61-.47,1.48-.36,1.95.24.11.15.19.31.24.48.31.3.47.73.41,1.19l-2.23,16.16,3.27-1.78,2-14.5c.1-.76.81-1.29,1.57-1.19.76.1,1.29.81,1.19,1.57l-1.72,12.47,3.47-1.89,1.35-9.76c.1-.76.81-1.29,1.57-1.19.76.1,1.29.81,1.19,1.57l-1.07,7.72,2.59-1.41.79-5.75c.1-.76.81-1.29,1.57-1.19.76.1,1.29.81,1.19,1.57l-.51,3.71,4.19-2.28c.53-.31,1.21-.12,1.51.41.31.53.12,1.21-.41,1.51l-4.53,2.77,4.28,1.74c.71.29,1.05,1.1.76,1.81-.29.71-1.1,1.05-1.81.76l-5.91-2.41c-.09-.04-.17-.08-.24-.13l-2.54,1.55,8.03,3.27c.71.29,1.05,1.1.76,1.81-.29.71-1.1,1.05-1.81.76l-9.85-4.01s-.06-.02-.08-.04l-3.38,2.06,12.47,5.07c.71.29,1.05,1.1.76,1.81-.29.71-1.1,1.05-1.81.76l-14.37-5.85-3.18,1.94,15.92,6.48c.71.29,1.05,1.1.76,1.81-.07.17-.17.32-.29.45-.1.41-.4.78-.82.95l-15.11,6.15,3.18,1.94,13.56-5.52c.71-.29,1.52.05,1.81.76.29.71-.05,1.52-.76,1.81l-11.66,4.74,3.38,2.06,9.12-3.71c.71-.29,1.52.05,1.81.76.29.71-.05,1.52-.76,1.81l-7.22,2.94,2.51,1.54,5.37-2.19c.71-.29,1.52.05,1.81.76.29.71-.05,1.52-.76,1.81l-3.47,1.41,4.07,2.49c.53.31.71.98.41,1.51-.31.53-.98.71-1.51.41l-4.66-2.54.63,4.58c.1.76-.43,1.46-1.19,1.57-.76.1-1.46-.43-1.57-1.19l-.87-6.32c-.01-.09-.02-.19-.01-.28l-2.62-1.43,1.19,8.59c.1.76-.43,1.46-1.19,1.57-.76.1-1.46-.43-1.57-1.19l-1.45-10.53s0-.06,0-.09l-3.48-1.89,1.84,13.34c.1.76-.43,1.46-1.19,1.57-.76.1-1.46-.43-1.57-1.19l-2.12-15.37-3.27-1.78,2.35,17.03c.1.76-.43,1.46-1.19,1.57-.18.03-.36.01-.53-.03-.41.12-.87.04-1.23-.24l-12.88-10.01-.09,3.72,11.56,8.98c.61.47.72,1.34.24,1.95-.47.61-1.35.72-1.95.24l-9.94-7.72-.1,3.95,7.78,6.04c.61.47.72,1.35.24,1.95-.47.61-1.35.72-1.95.24l-6.16-4.78-.07,2.95,4.58,3.56c.61.47.72,1.35.24,1.95-.47.61-1.35.72-1.95.24l-2.96-2.3-.12,4.77c0,.61-.5,1.11-1.11,1.11s-1.11-.5-1.11-1.11l-.13-5.31-3.65,2.84c-.61.47-1.48.36-1.95-.24-.47-.61-.36-1.48.24-1.95l5.04-3.92c.07-.06.15-.11.23-.15l-.07-2.98-6.85,5.32c-.61.47-1.48.36-1.95-.24-.47-.61-.36-1.48.24-1.95l8.4-6.52s.05-.04.07-.05l-.1-3.96-10.63,8.26c-.61.47-1.48.36-1.95-.24s-.36-1.48.24-1.95l12.25-9.52-.09-3.72-13.57,10.55c-.61.47-1.48.36-1.95-.24-.11-.15-.19-.31-.24-.48-.31-.3-.47-.73-.41-1.19l2.23-16.16-3.27,1.78-2,14.5c-.1.76-.81,1.29-1.57,1.19-.76-.1-1.29-.81-1.19-1.57l1.72-12.47-3.47,1.89-1.35,9.76c-.1.76-.81,1.29-1.57,1.19-.76-.1-1.29-.81-1.19-1.57l1.07-7.72-2.59,1.41-.79,5.75c-.1.76-.81,1.29-1.57,1.19-.76-.1-1.29-.81-1.19-1.57l.51-3.71-4.19,2.28c-.53.31-1.21.12-1.51-.41-.31-.53-.12-1.21.41-1.51l4.53-2.77ZM10.76,45.78l15.26,6.21,6.41-3.92-10.78-.7c-.68,0-1.23-.54-1.24-1.22,0-.68.54-1.23,1.22-1.24l10.95-.86-7.02-4.29-14.8,6.02ZM25.61,20.52l2.25,16.32,6.6,3.59-4.79-9.69c-.34-.59-.15-1.34.44-1.68.59-.34,1.34-.15,1.68.44l6.23,9.05.2-8.23-12.61-9.8ZM54.91,20.75l-13,10.11.19,7.51,6-8.99c.34-.59,1.09-.8,1.68-.46.59.34.8,1.09.46,1.68l-4.73,9.92,7.23-3.94,2.18-15.82ZM69.36,46.25l-15.26-6.21-6.41,3.92,10.78.7c.68,0,1.23.54,1.24,1.22,0,.68-.54,1.23-1.22,1.24l-10.95.86,7.02,4.29,14.8-6.02ZM54.51,71.5l-2.25-16.32-6.6-3.59,4.79,9.69c.34.59.15,1.34-.44,1.68-.59.34-1.34.15-1.68-.44l-6.23-9.05-.2,8.23,12.61,9.8ZM25.21,71.27l13-10.11-.19-7.51-6,8.99c-.34.59-1.09.8-1.68.46-.59-.34-.8-1.09-.46-1.68l4.73-9.92-7.23,3.94-2.18,15.82Z" style="fill:#77d0d5; fill-rule:evenodd; stroke-width:0px;"/></svg>